<svg width="36" height="35" viewBox="0 0 36 35" fill="none" xmlns="http://www.w3.org/2000/svg">
<path d="M17.7827 22.8261C20.7842 22.8261 23.2175 20.3929 23.2175 17.3913C23.2175 14.3898 20.7842 11.9565 17.7827 11.9565C14.7811 11.9565 12.3479 14.3898 12.3479 17.3913C12.3479 20.3929 14.7811 22.8261 17.7827 22.8261Z" stroke="#9C9C9C" stroke-width="2" stroke-linecap="round" stroke-linejoin="round"/>
<path d="M24.9974 28.2608C22.5764 29.8682 19.6878 30.6211 16.7902 30.4C13.8925 30.1788 11.1517 28.9963 9.00258 27.0401C6.8535 25.0839 5.41925 22.466 4.92743 19.6018C4.4356 16.7376 4.91437 13.7912 6.28775 11.2301C7.66114 8.66903 9.85048 6.63993 12.5084 5.4648C15.1663 4.28967 18.1405 4.03581 20.9591 4.74351C23.7777 5.4512 26.2793 7.07992 28.0668 9.37122C29.8544 11.6625 30.8255 14.4852 30.8262 17.3913C30.8262 20.394 29.7393 22.826 27.0219 22.826C24.3045 22.826 23.2175 20.394 23.2175 17.3913V11.9565" stroke="#9C9C9C" stroke-width="2" stroke-linecap="round" stroke-linejoin="round"/>
</svg>
